<svg width="650" height="690" viewBox="0 0 650 690" fill="none" xmlns="http://www.w3.org/2000/svg">
<path d="M568.057 284.811C610.411 229.922 657.934 125.493 492.893 156.528C471.513 160.548 450.502 165.877 430.015 172.217C292.356 214.821 178.298 303.107 134.032 347.165C64.8068 415.739 -27.8701 546.514 155.226 521.021" stroke="#090909" stroke-width="30"/>
<path d="M496.42 518.208C565.015 528.277 678.918 518.056 571.079 389.321C463.241 260.587 298.227 189.255 229.199 169.681C135.519 142.875 -23.8807 126.061 87.9621 273.252" stroke="#090909" stroke-width="30"/>
<circle cx="560.829" cy="297.109" r="17.5" transform="rotate(-92.6029 560.829 297.109)" stroke="#090909" stroke-width="15"/>
<circle cx="171.829" cy="517.109" r="17.5" transform="rotate(-92.6029 171.829 517.109)" stroke="#090909" stroke-width="15"/>
<circle cx="98.8291" cy="288.109" r="17.5" transform="rotate(-92.6029 98.8291 288.109)" stroke="#090909" stroke-width="15"/>
<path d="M331.345 286.168L396.481 439H379.88L331.345 322.984L282.321 439H265.72L331.345 286.168Z" fill="#090909"/>
<path d="M263.603 571.357C289.845 635.529 355.602 728.077 411.536 569.732C467.47 411.387 444.894 233.039 426.613 163.658C402.012 69.3745 335.363 -76.3956 265.579 94.7894" stroke="#090909" stroke-width="30"/>
<circle cx="256.829" cy="557.109" r="17.5" transform="rotate(-92.6029 256.829 557.109)" stroke="#090909" stroke-width="15"/>
<circle cx="259.829" cy="111.11" r="17.5" transform="rotate(-92.6029 259.829 111.11)" stroke="#090909" stroke-width="15"/>
<circle cx="480.829" cy="517.111" r="17.5" transform="rotate(-92.6029 480.829 517.111)" stroke="#090909" stroke-width="15"/>
</svg>
